<svg xmlns="http://www.w3.org/2000/svg" viewBox="0 0 940 150" role="img" aria-label="Drakon Games logo">
  <defs>
    <style>
      .wordmark {
        font-family: Bahnschrift, Eurostile, "Arial Black", Arial, sans-serif;
        font-size: 62px;
        font-weight: 900;
        letter-spacing: 12px;
      }
    </style>
  </defs>
  <g fill="#050505">
    <path d="M22 90c33-44 70-69 114-76-16 12-26 27-30 44 30-28 66-39 107-33-24 5-44 16-61 32 34-8 68-3 100 15-47-7-88 2-123 28-24 18-47 31-75 28 13-7 24-16 33-28-25 8-47 5-65-10Z"/>
    <path d="M73 72c22-20 49-31 81-33-18 10-31 24-39 43 25-13 50-18 76-14-26 7-48 21-65 43-18 20-47 26-78 16 17-9 28-21 34-37-13 1-24-5-9-18Z"/>
    <path d="M138 20c27 3 51 14 72 34-31-9-58-6-82 7 1-16 5-30 10-41Z"/>
    <path d="M190 53c30 2 58 13 84 34-37-10-67-9-91 4 0-15 2-27 7-38Z"/>
    <path d="M33 77c17-4 33-3 48 4-21 3-38 11-50 26-8-10-8-20 2-30Z"/>
    <path d="M154 92l78 18-65 24c-29 11-61 5-84-15 27 5 50 0 71-27Z"/>
    <path d="M132 82l24-8 18 10-30 10Z"/>
    <path d="M148 104l55 6-50 17Z"/>
    <path d="M174 78l22 3-15 11-20-5Z"/>
  </g>
  <text x="185" y="100" class="wordmark" fill="#050505">DRAKON GAMES</text>
</svg>
