<svg xmlns="http://www.w3.org/2000/svg" viewBox="0 0 256 256" role="img" aria-label="Drakon Games icon">
  <rect width="256" height="256" rx="44" fill="#fff"/>
  <g fill="#080808">
    <path d="M35 138c45-65 106-93 172-85-26-19-56-27-92-26 29-13 61-14 94-6-14-15-33-27-56-35 58 7 103 36 137 85-41-29-81-39-124-31 30 9 55 27 73 52-31-17-65-22-100-14 35 12 61 35 78 69-56-35-106-40-150-14-14 8-25 14-32 5z"/>
    <path d="M48 139c38 20 75 24 111 11-29 35-68 52-118 52 21-12 36-28 45-49-18 4-32-1-38-14z"/>
    <path d="M197 106l36 8-26 17-23-8z"/>
    <path d="M219 82l55 36-26 4-25-14z"/>
    <path d="M150 89l-20-27 41 20z"/>
    <path d="M94 116l-33-16 45 2z"/>
    <circle cx="187" cy="82" r="8" fill="#fff"/>
    <path d="M210 155l33 21-47-5z"/>
  </g>
</svg>
