<svg xmlns="http://www.w3.org/2000/svg" viewBox="0 0 256 256" role="img" aria-label="Drakon Games icon">
  <g fill="#050505">
    <path d="M22 155c38-51 81-79 132-87-19 14-30 31-34 51 35-32 76-45 123-38-28 6-51 18-70 37 39-9 78-4 115 17-54-8-101 3-141 33-28 21-54 36-87 32 15-8 28-18 38-32-29 9-55 6-76-13Z"/>
    <path d="M81 134c25-23 56-36 93-38-21 12-36 28-45 50 29-15 58-21 88-16-30 8-55 24-75 50-21 23-54 30-90 18 20-10 32-24 39-43-15 1-28-6-10-21Z"/>
    <path d="M156 73c31 3 59 16 83 39-36-10-67-7-94 8 1-18 5-34 11-47Z"/>
    <path d="M216 111c35 2 67 15 97 39-43-12-78-10-106 5 0-17 3-31 9-44Z"/>
    <path d="M34 140c20-5 39-3 56 5-24 3-44 13-58 30-9-12-9-24 2-35Z"/>
    <path d="M174 158l90 21-75 28c-33 13-70 6-97-17 31 6 58 0 82-32Z"/>
    <path d="M148 146l28-9 21 12-35 12Z"/>
    <path d="M167 171l64 7-58 20Z"/>
    <path d="M197 141l25 4-17 13-23-6Z"/>
  </g>
</svg>
