<svg xmlns="http://www.w3.org/2000/svg" viewBox="0 0 840 220" role="img" aria-label="Drakon Games logo">
  <defs>
    <style>
      .wordmark {
        font-family: Bahnschrift, Eurostile, "Arial Black", sans-serif;
        font-size: 54px;
        font-weight: 800;
        letter-spacing: 8px;
      }
    </style>
  </defs>
  <rect width="840" height="220" fill="#fff"/>
  <g fill="#080808">
    <path d="M32 122c39-54 92-77 149-70-22-16-48-23-79-22 25-11 52-12 80-5-12-13-28-23-48-30 50 6 89 31 118 73-35-25-70-34-107-27 26 8 47 23 63 45-27-15-56-19-86-12 30 10 52 30 67 59-48-30-91-34-129-12-12 7-21 12-28 1z"/>
    <path d="M43 121c33 17 65 20 96 9-25 30-59 45-102 45 18-10 31-24 39-42-16 3-28-1-33-12z"/>
    <path d="M171 94l31 7-22 14-20-7z"/>
    <path d="M190 73l47 31-22 3-22-12z"/>
    <path d="M130 79l-17-23 35 17z"/>
    <path d="M81 102l-28-14 39 2z"/>
    <circle cx="163" cy="74" r="7" fill="#fff"/>
    <path d="M183 136l28 18-40-4z"/>
  </g>
  <text x="188" y="138" class="wordmark" fill="#080808">DRAKON GAMES</text>
</svg>
